<?xml version="1.0" encoding="utf-8" standalone="no"?>
<!DOCTYPE svg PUBLIC "-//W3C//DTD SVG 1.1//EN"
  "http://www.w3.org/Graphics/SVG/1.1/DTD/svg11.dtd">
<!-- Created with matplotlib (http://matplotlib.org/) -->
<svg height="432pt" version="1.1" viewBox="0 0 576 432" width="576pt" xmlns="http://www.w3.org/2000/svg" xmlns:xlink="http://www.w3.org/1999/xlink">
 <defs>
  <style type="text/css">
*{stroke-linecap:butt;stroke-linejoin:round;}
  </style>
 </defs>
 <g id="figure_1">
  <g id="patch_1">
   <path d="
M0 432
L576 432
L576 0
L0 0
z
" style="fill:#ffffff;"/>
  </g>
  <g id="axes_1">
   <g id="patch_2">
    <path d="
M72 388.8
L518.4 388.8
L518.4 43.2
L72 43.2
z
" style="fill:#ffffff;"/>
   </g>
   <g id="line2d_1">
    <path clip-path="url(#p7ff5b81e1d)" d="
M72 388.51
L76.5091 388.533
L81.0182 387.541
L85.5273 386.242
L90.0364 386.275
L94.5455 387.486
L99.0545 388.426
L103.564 387.853
L108.073 386.189
L112.582 385.167
L117.091 385.914
L121.6 387.573
L126.109 388.114
L130.618 386.589
L135.127 384.325
L139.636 383.6
L144.145 385.11
L148.655 387.042
L153.164 386.85
L157.673 383.755
L162.182 379.331
L166.691 376.175
L171.2 377.374
L175.709 384.815
L180.218 349.559
L184.727 357.663
L189.236 372.569
L193.745 373.07
L198.255 375.307
L202.764 380.953
L207.273 378.032
L211.782 374.257
L216.291 378.389
L220.8 385.987
L225.309 384.298
L229.818 371.076
L234.327 362.306
L238.836 372.321
L243.345 387.34
L247.855 376.254
L252.364 342.266
L256.873 339.154
L261.382 380.764
L265.891 363.719
L270.4 269.693
L274.909 339.385
L279.418 313.558
L283.927 209.458
L288.436 169.467
L292.945 358.312
L297.455 358.291
L301.964 169.429
L306.473 209.419
L310.982 313.39
L315.491 339.266
L320 269.524
L324.509 363.336
L329.018 380.454
L333.527 338.899
L338.036 341.749
L342.545 375.467
L347.055 386.595
L351.564 371.69
L356.073 361.395
L360.582 369.5
L365.091 382.233
L369.6 383.931
L374.109 376.179
L378.618 370.47
L383.127 370.959
L387.636 370.653
L392.145 361.466
L396.655 331.277
L401.164 333.186
L405.673 341.044
L410.182 304.037
L414.691 367.147
L419.2 363.447
L423.709 368.843
L428.218 375.89
L432.727 381.236
L437.236 384.215
L441.745 384.628
L446.255 383.397
L450.764 382.572
L455.273 383.579
L459.782 385.764
L464.291 387.131
L468.8 386.576
L473.309 385.09
L477.818 384.605
L482.327 385.809
L486.836 387.349
L491.345 387.252
L495.855 384.99
L500.364 382.025
L504.873 380.359
L509.382 335.756
L513.891 273.674
L518.4 368.643" style="fill:none;stroke:#0000ff;stroke-linecap:square;"/>
    <defs>
     <path d="
M0 3
C0.795609 3 1.55874 2.6839 2.12132 2.12132
C2.6839 1.55874 3 0.795609 3 0
C3 -0.795609 2.6839 -1.55874 2.12132 -2.12132
C1.55874 -2.6839 0.795609 -3 0 -3
C-0.795609 -3 -1.55874 -2.6839 -2.12132 -2.12132
C-2.6839 -1.55874 -3 -0.795609 -3 0
C-3 0.795609 -2.6839 1.55874 -2.12132 2.12132
C-1.55874 2.6839 -0.795609 3 0 3
z
" id="mf1e9a9e4ae" style="stroke:#000000;stroke-width:0.5;"/>
    </defs>
    <g clip-path="url(#p7ff5b81e1d)">
     <use style="fill:#0000ff;stroke:#000000;stroke-width:0.5;" x="72.0" xlink:href="#mf1e9a9e4ae" y="388.509885349"/>
     <use style="fill:#0000ff;stroke:#000000;stroke-width:0.5;" x="76.5090909091" xlink:href="#mf1e9a9e4ae" y="388.532846172"/>
     <use style="fill:#0000ff;stroke:#000000;stroke-width:0.5;" x="81.0181818182" xlink:href="#mf1e9a9e4ae" y="387.540753589"/>
     <use style="fill:#0000ff;stroke:#000000;stroke-width:0.5;" x="85.5272727273" xlink:href="#mf1e9a9e4ae" y="386.24192396"/>
     <use style="fill:#0000ff;stroke:#000000;stroke-width:0.5;" x="90.0363636364" xlink:href="#mf1e9a9e4ae" y="386.274631418"/>
     <use style="fill:#0000ff;stroke:#000000;stroke-width:0.5;" x="94.5454545455" xlink:href="#mf1e9a9e4ae" y="387.486259555"/>
     <use style="fill:#0000ff;stroke:#000000;stroke-width:0.5;" x="99.0545454545" xlink:href="#mf1e9a9e4ae" y="388.426293967"/>
     <use style="fill:#0000ff;stroke:#000000;stroke-width:0.5;" x="103.563636364" xlink:href="#mf1e9a9e4ae" y="387.852808336"/>
     <use style="fill:#0000ff;stroke:#000000;stroke-width:0.5;" x="108.072727273" xlink:href="#mf1e9a9e4ae" y="386.189178613"/>
     <use style="fill:#0000ff;stroke:#000000;stroke-width:0.5;" x="112.581818182" xlink:href="#mf1e9a9e4ae" y="385.167024486"/>
     <use style="fill:#0000ff;stroke:#000000;stroke-width:0.5;" x="117.090909091" xlink:href="#mf1e9a9e4ae" y="385.913698303"/>
     <use style="fill:#0000ff;stroke:#000000;stroke-width:0.5;" x="121.6" xlink:href="#mf1e9a9e4ae" y="387.572690223"/>
     <use style="fill:#0000ff;stroke:#000000;stroke-width:0.5;" x="126.109090909" xlink:href="#mf1e9a9e4ae" y="388.114379429"/>
     <use style="fill:#0000ff;stroke:#000000;stroke-width:0.5;" x="130.618181818" xlink:href="#mf1e9a9e4ae" y="386.588634238"/>
     <use style="fill:#0000ff;stroke:#000000;stroke-width:0.5;" x="135.127272727" xlink:href="#mf1e9a9e4ae" y="384.325117184"/>
     <use style="fill:#0000ff;stroke:#000000;stroke-width:0.5;" x="139.636363636" xlink:href="#mf1e9a9e4ae" y="383.600392339"/>
     <use style="fill:#0000ff;stroke:#000000;stroke-width:0.5;" x="144.145454545" xlink:href="#mf1e9a9e4ae" y="385.109642549"/>
     <use style="fill:#0000ff;stroke:#000000;stroke-width:0.5;" x="148.654545455" xlink:href="#mf1e9a9e4ae" y="387.042457411"/>
     <use style="fill:#0000ff;stroke:#000000;stroke-width:0.5;" x="153.163636364" xlink:href="#mf1e9a9e4ae" y="386.849924834"/>
     <use style="fill:#0000ff;stroke:#000000;stroke-width:0.5;" x="157.672727273" xlink:href="#mf1e9a9e4ae" y="383.754619291"/>
     <use style="fill:#0000ff;stroke:#000000;stroke-width:0.5;" x="162.181818182" xlink:href="#mf1e9a9e4ae" y="379.330602408"/>
     <use style="fill:#0000ff;stroke:#000000;stroke-width:0.5;" x="166.690909091" xlink:href="#mf1e9a9e4ae" y="376.174930477"/>
     <use style="fill:#0000ff;stroke:#000000;stroke-width:0.5;" x="171.2" xlink:href="#mf1e9a9e4ae" y="377.37444928"/>
     <use style="fill:#0000ff;stroke:#000000;stroke-width:0.5;" x="175.709090909" xlink:href="#mf1e9a9e4ae" y="384.814781681"/>
     <use style="fill:#0000ff;stroke:#000000;stroke-width:0.5;" x="180.218181818" xlink:href="#mf1e9a9e4ae" y="349.558534366"/>
     <use style="fill:#0000ff;stroke:#000000;stroke-width:0.5;" x="184.727272727" xlink:href="#mf1e9a9e4ae" y="357.66276198"/>
     <use style="fill:#0000ff;stroke:#000000;stroke-width:0.5;" x="189.236363636" xlink:href="#mf1e9a9e4ae" y="372.568645173"/>
     <use style="fill:#0000ff;stroke:#000000;stroke-width:0.5;" x="193.745454545" xlink:href="#mf1e9a9e4ae" y="373.07026939"/>
     <use style="fill:#0000ff;stroke:#000000;stroke-width:0.5;" x="198.254545455" xlink:href="#mf1e9a9e4ae" y="375.307434452"/>
     <use style="fill:#0000ff;stroke:#000000;stroke-width:0.5;" x="202.763636364" xlink:href="#mf1e9a9e4ae" y="380.953351813"/>
     <use style="fill:#0000ff;stroke:#000000;stroke-width:0.5;" x="207.272727273" xlink:href="#mf1e9a9e4ae" y="378.032090122"/>
     <use style="fill:#0000ff;stroke:#000000;stroke-width:0.5;" x="211.781818182" xlink:href="#mf1e9a9e4ae" y="374.256724187"/>
     <use style="fill:#0000ff;stroke:#000000;stroke-width:0.5;" x="216.290909091" xlink:href="#mf1e9a9e4ae" y="378.388570762"/>
     <use style="fill:#0000ff;stroke:#000000;stroke-width:0.5;" x="220.8" xlink:href="#mf1e9a9e4ae" y="385.987259871"/>
     <use style="fill:#0000ff;stroke:#000000;stroke-width:0.5;" x="225.309090909" xlink:href="#mf1e9a9e4ae" y="384.298048295"/>
     <use style="fill:#0000ff;stroke:#000000;stroke-width:0.5;" x="229.818181818" xlink:href="#mf1e9a9e4ae" y="371.076101052"/>
     <use style="fill:#0000ff;stroke:#000000;stroke-width:0.5;" x="234.327272727" xlink:href="#mf1e9a9e4ae" y="362.306363556"/>
     <use style="fill:#0000ff;stroke:#000000;stroke-width:0.5;" x="238.836363636" xlink:href="#mf1e9a9e4ae" y="372.321082024"/>
     <use style="fill:#0000ff;stroke:#000000;stroke-width:0.5;" x="243.345454545" xlink:href="#mf1e9a9e4ae" y="387.340118967"/>
     <use style="fill:#0000ff;stroke:#000000;stroke-width:0.5;" x="247.854545455" xlink:href="#mf1e9a9e4ae" y="376.253608044"/>
     <use style="fill:#0000ff;stroke:#000000;stroke-width:0.5;" x="252.363636364" xlink:href="#mf1e9a9e4ae" y="342.265840208"/>
     <use style="fill:#0000ff;stroke:#000000;stroke-width:0.5;" x="256.872727273" xlink:href="#mf1e9a9e4ae" y="339.154317117"/>
     <use style="fill:#0000ff;stroke:#000000;stroke-width:0.5;" x="261.381818182" xlink:href="#mf1e9a9e4ae" y="380.763560601"/>
     <use style="fill:#0000ff;stroke:#000000;stroke-width:0.5;" x="265.890909091" xlink:href="#mf1e9a9e4ae" y="363.718681401"/>
     <use style="fill:#0000ff;stroke:#000000;stroke-width:0.5;" x="270.4" xlink:href="#mf1e9a9e4ae" y="269.692506169"/>
     <use style="fill:#0000ff;stroke:#000000;stroke-width:0.5;" x="274.909090909" xlink:href="#mf1e9a9e4ae" y="339.385273991"/>
     <use style="fill:#0000ff;stroke:#000000;stroke-width:0.5;" x="279.418181818" xlink:href="#mf1e9a9e4ae" y="313.557556824"/>
     <use style="fill:#0000ff;stroke:#000000;stroke-width:0.5;" x="283.927272727" xlink:href="#mf1e9a9e4ae" y="209.457692869"/>
     <use style="fill:#0000ff;stroke:#000000;stroke-width:0.5;" x="288.436363636" xlink:href="#mf1e9a9e4ae" y="169.466671578"/>
     <use style="fill:#0000ff;stroke:#000000;stroke-width:0.5;" x="292.945454545" xlink:href="#mf1e9a9e4ae" y="358.312393501"/>
     <use style="fill:#0000ff;stroke:#000000;stroke-width:0.5;" x="297.454545455" xlink:href="#mf1e9a9e4ae" y="358.290884732"/>
     <use style="fill:#0000ff;stroke:#000000;stroke-width:0.5;" x="301.963636364" xlink:href="#mf1e9a9e4ae" y="169.429230573"/>
     <use style="fill:#0000ff;stroke:#000000;stroke-width:0.5;" x="306.472727273" xlink:href="#mf1e9a9e4ae" y="209.418741962"/>
     <use style="fill:#0000ff;stroke:#000000;stroke-width:0.5;" x="310.981818182" xlink:href="#mf1e9a9e4ae" y="313.389826873"/>
     <use style="fill:#0000ff;stroke:#000000;stroke-width:0.5;" x="315.490909091" xlink:href="#mf1e9a9e4ae" y="339.266305123"/>
     <use style="fill:#0000ff;stroke:#000000;stroke-width:0.5;" x="320.0" xlink:href="#mf1e9a9e4ae" y="269.523809784"/>
     <use style="fill:#0000ff;stroke:#000000;stroke-width:0.5;" x="324.509090909" xlink:href="#mf1e9a9e4ae" y="363.336449101"/>
     <use style="fill:#0000ff;stroke:#000000;stroke-width:0.5;" x="329.018181818" xlink:href="#mf1e9a9e4ae" y="380.453988645"/>
     <use style="fill:#0000ff;stroke:#000000;stroke-width:0.5;" x="333.527272727" xlink:href="#mf1e9a9e4ae" y="338.899247679"/>
     <use style="fill:#0000ff;stroke:#000000;stroke-width:0.5;" x="338.036363636" xlink:href="#mf1e9a9e4ae" y="341.749169331"/>
     <use style="fill:#0000ff;stroke:#000000;stroke-width:0.5;" x="342.545454545" xlink:href="#mf1e9a9e4ae" y="375.466842539"/>
     <use style="fill:#0000ff;stroke:#000000;stroke-width:0.5;" x="347.054545455" xlink:href="#mf1e9a9e4ae" y="386.594563749"/>
     <use style="fill:#0000ff;stroke:#000000;stroke-width:0.5;" x="351.563636364" xlink:href="#mf1e9a9e4ae" y="371.689684413"/>
     <use style="fill:#0000ff;stroke:#000000;stroke-width:0.5;" x="356.072727273" xlink:href="#mf1e9a9e4ae" y="361.394671021"/>
     <use style="fill:#0000ff;stroke:#000000;stroke-width:0.5;" x="360.581818182" xlink:href="#mf1e9a9e4ae" y="369.500328455"/>
     <use style="fill:#0000ff;stroke:#000000;stroke-width:0.5;" x="365.090909091" xlink:href="#mf1e9a9e4ae" y="382.2329752"/>
     <use style="fill:#0000ff;stroke:#000000;stroke-width:0.5;" x="369.6" xlink:href="#mf1e9a9e4ae" y="383.931066906"/>
     <use style="fill:#0000ff;stroke:#000000;stroke-width:0.5;" x="374.109090909" xlink:href="#mf1e9a9e4ae" y="376.179061529"/>
     <use style="fill:#0000ff;stroke:#000000;stroke-width:0.5;" x="378.618181818" xlink:href="#mf1e9a9e4ae" y="370.469688857"/>
     <use style="fill:#0000ff;stroke:#000000;stroke-width:0.5;" x="383.127272727" xlink:href="#mf1e9a9e4ae" y="370.95905629"/>
     <use style="fill:#0000ff;stroke:#000000;stroke-width:0.5;" x="387.636363636" xlink:href="#mf1e9a9e4ae" y="370.653361113"/>
     <use style="fill:#0000ff;stroke:#000000;stroke-width:0.5;" x="392.145454545" xlink:href="#mf1e9a9e4ae" y="361.466005086"/>
     <use style="fill:#0000ff;stroke:#000000;stroke-width:0.5;" x="396.654545455" xlink:href="#mf1e9a9e4ae" y="331.277011772"/>
     <use style="fill:#0000ff;stroke:#000000;stroke-width:0.5;" x="401.163636364" xlink:href="#mf1e9a9e4ae" y="333.186166387"/>
     <use style="fill:#0000ff;stroke:#000000;stroke-width:0.5;" x="405.672727273" xlink:href="#mf1e9a9e4ae" y="341.044217083"/>
     <use style="fill:#0000ff;stroke:#000000;stroke-width:0.5;" x="410.181818182" xlink:href="#mf1e9a9e4ae" y="304.036569168"/>
     <use style="fill:#0000ff;stroke:#000000;stroke-width:0.5;" x="414.690909091" xlink:href="#mf1e9a9e4ae" y="367.147344204"/>
     <use style="fill:#0000ff;stroke:#000000;stroke-width:0.5;" x="419.2" xlink:href="#mf1e9a9e4ae" y="363.447013035"/>
     <use style="fill:#0000ff;stroke:#000000;stroke-width:0.5;" x="423.709090909" xlink:href="#mf1e9a9e4ae" y="368.843177424"/>
     <use style="fill:#0000ff;stroke:#000000;stroke-width:0.5;" x="428.218181818" xlink:href="#mf1e9a9e4ae" y="375.890315652"/>
     <use style="fill:#0000ff;stroke:#000000;stroke-width:0.5;" x="432.727272727" xlink:href="#mf1e9a9e4ae" y="381.235779526"/>
     <use style="fill:#0000ff;stroke:#000000;stroke-width:0.5;" x="437.236363636" xlink:href="#mf1e9a9e4ae" y="384.215333636"/>
     <use style="fill:#0000ff;stroke:#000000;stroke-width:0.5;" x="441.745454545" xlink:href="#mf1e9a9e4ae" y="384.627665458"/>
     <use style="fill:#0000ff;stroke:#000000;stroke-width:0.5;" x="446.254545455" xlink:href="#mf1e9a9e4ae" y="383.397019079"/>
     <use style="fill:#0000ff;stroke:#000000;stroke-width:0.5;" x="450.763636364" xlink:href="#mf1e9a9e4ae" y="382.571515124"/>
     <use style="fill:#0000ff;stroke:#000000;stroke-width:0.5;" x="455.272727273" xlink:href="#mf1e9a9e4ae" y="383.579221603"/>
     <use style="fill:#0000ff;stroke:#000000;stroke-width:0.5;" x="459.781818182" xlink:href="#mf1e9a9e4ae" y="385.763715239"/>
     <use style="fill:#0000ff;stroke:#000000;stroke-width:0.5;" x="464.290909091" xlink:href="#mf1e9a9e4ae" y="387.130556266"/>
     <use style="fill:#0000ff;stroke:#000000;stroke-width:0.5;" x="468.8" xlink:href="#mf1e9a9e4ae" y="386.575864869"/>
     <use style="fill:#0000ff;stroke:#000000;stroke-width:0.5;" x="473.309090909" xlink:href="#mf1e9a9e4ae" y="385.089967049"/>
     <use style="fill:#0000ff;stroke:#000000;stroke-width:0.5;" x="477.818181818" xlink:href="#mf1e9a9e4ae" y="384.604756816"/>
     <use style="fill:#0000ff;stroke:#000000;stroke-width:0.5;" x="482.327272727" xlink:href="#mf1e9a9e4ae" y="385.808905063"/>
     <use style="fill:#0000ff;stroke:#000000;stroke-width:0.5;" x="486.836363636" xlink:href="#mf1e9a9e4ae" y="387.349403078"/>
     <use style="fill:#0000ff;stroke:#000000;stroke-width:0.5;" x="491.345454545" xlink:href="#mf1e9a9e4ae" y="387.251550814"/>
     <use style="fill:#0000ff;stroke:#000000;stroke-width:0.5;" x="495.854545455" xlink:href="#mf1e9a9e4ae" y="384.990395168"/>
     <use style="fill:#0000ff;stroke:#000000;stroke-width:0.5;" x="500.363636364" xlink:href="#mf1e9a9e4ae" y="382.025358395"/>
     <use style="fill:#0000ff;stroke:#000000;stroke-width:0.5;" x="504.872727273" xlink:href="#mf1e9a9e4ae" y="380.358821135"/>
     <use style="fill:#0000ff;stroke:#000000;stroke-width:0.5;" x="509.381818182" xlink:href="#mf1e9a9e4ae" y="335.756223117"/>
     <use style="fill:#0000ff;stroke:#000000;stroke-width:0.5;" x="513.890909091" xlink:href="#mf1e9a9e4ae" y="273.67413624"/>
     <use style="fill:#0000ff;stroke:#000000;stroke-width:0.5;" x="518.4" xlink:href="#mf1e9a9e4ae" y="368.643398772"/>
    </g>
   </g>
   <g id="line2d_2">
    <path clip-path="url(#p7ff5b81e1d)" d="
M72 274.991
L76.5091 274.267
L81.0182 274.321
L85.5273 274.579
L90.0364 275.116
L94.5455 275.581
L99.0545 275.48
L103.564 274.927
L108.073 274.613
L112.582 275.075
L117.091 276.012
L121.6 276.474
L126.109 275.897
L130.618 274.921
L135.127 274.924
L139.636 276.479
L144.145 278.34
L148.655 278.415
L153.164 276.296
L157.673 274.808
L162.182 278.067
L166.691 286.28
L171.2 291.085
L175.709 279.849
L180.218 297.236
L184.727 297.621
L189.236 285.276
L193.745 279.531
L198.255 278.294
L202.764 274.918
L207.273 275.389
L211.782 276.035
L216.291 274.503
L220.8 272.766
L225.309 273.463
L229.818 275.853
L234.327 276.652
L238.836 274.645
L243.345 272.845
L247.855 274.472
L252.364 277.521
L256.873 276.864
L261.382 273.427
L265.891 274.866
L270.4 279.234
L274.909 274.975
L279.418 275.817
L283.927 277.097
L288.436 276.341
L292.945 273.508
L297.455 273.231
L301.964 270.414
L306.473 269.672
L310.982 270.951
L315.491 271.764
L320 267.576
L324.509 271.845
L329.018 273.188
L333.527 269.804
L338.036 269.147
L342.545 272
L347.055 273.406
L351.564 271.554
L356.073 269.535
L360.582 270.06
L365.091 271.864
L369.6 271.958
L374.109 269.735
L378.618 267.293
L383.127 265.748
L387.636 262.498
L392.145 251.955
L396.655 220.335
L401.164 232.459
L405.673 216.48
L410.182 195.629
L414.691 248.659
L419.2 240.128
L423.709 251.728
L428.218 264.649
L432.727 269.331
L437.236 267.828
L441.745 265.911
L446.255 266.719
L450.764 269.327
L455.273 271.211
L459.782 271.16
L464.291 270.042
L468.8 269.435
L473.309 270.02
L477.818 271.208
L482.327 271.939
L486.836 271.545
L491.345 269.931
L495.855 267.312
L500.364 264.077
L504.873 260.983
L509.382 168.941
L513.891 46.7099
L518.4 230.64" style="fill:none;stroke:#000000;stroke-linecap:square;"/>
    <defs>
     <path d="
M0 3
C0.795609 3 1.55874 2.6839 2.12132 2.12132
C2.6839 1.55874 3 0.795609 3 0
C3 -0.795609 2.6839 -1.55874 2.12132 -2.12132
C1.55874 -2.6839 0.795609 -3 0 -3
C-0.795609 -3 -1.55874 -2.6839 -2.12132 -2.12132
C-2.6839 -1.55874 -3 -0.795609 -3 0
C-3 0.795609 -2.6839 1.55874 -2.12132 2.12132
C-1.55874 2.6839 -0.795609 3 0 3
z
" id="m8b0675cc3b" style="stroke:#000000;stroke-width:0.5;"/>
    </defs>
    <g clip-path="url(#p7ff5b81e1d)">
     <use style="stroke:#000000;stroke-width:0.5;" x="72.0" xlink:href="#m8b0675cc3b" y="274.991263874"/>
     <use style="stroke:#000000;stroke-width:0.5;" x="76.5090909091" xlink:href="#m8b0675cc3b" y="274.266880714"/>
     <use style="stroke:#000000;stroke-width:0.5;" x="81.0181818182" xlink:href="#m8b0675cc3b" y="274.321323117"/>
     <use style="stroke:#000000;stroke-width:0.5;" x="85.5272727273" xlink:href="#m8b0675cc3b" y="274.579463508"/>
     <use style="stroke:#000000;stroke-width:0.5;" x="90.0363636364" xlink:href="#m8b0675cc3b" y="275.115678513"/>
     <use style="stroke:#000000;stroke-width:0.5;" x="94.5454545455" xlink:href="#m8b0675cc3b" y="275.580696084"/>
     <use style="stroke:#000000;stroke-width:0.5;" x="99.0545454545" xlink:href="#m8b0675cc3b" y="275.479667747"/>
     <use style="stroke:#000000;stroke-width:0.5;" x="103.563636364" xlink:href="#m8b0675cc3b" y="274.927088758"/>
     <use style="stroke:#000000;stroke-width:0.5;" x="108.072727273" xlink:href="#m8b0675cc3b" y="274.612510128"/>
     <use style="stroke:#000000;stroke-width:0.5;" x="112.581818182" xlink:href="#m8b0675cc3b" y="275.074724826"/>
     <use style="stroke:#000000;stroke-width:0.5;" x="117.090909091" xlink:href="#m8b0675cc3b" y="276.012313621"/>
     <use style="stroke:#000000;stroke-width:0.5;" x="121.6" xlink:href="#m8b0675cc3b" y="276.474302864"/>
     <use style="stroke:#000000;stroke-width:0.5;" x="126.109090909" xlink:href="#m8b0675cc3b" y="275.896885206"/>
     <use style="stroke:#000000;stroke-width:0.5;" x="130.618181818" xlink:href="#m8b0675cc3b" y="274.92085773"/>
     <use style="stroke:#000000;stroke-width:0.5;" x="135.127272727" xlink:href="#m8b0675cc3b" y="274.923673471"/>
     <use style="stroke:#000000;stroke-width:0.5;" x="139.636363636" xlink:href="#m8b0675cc3b" y="276.479432822"/>
     <use style="stroke:#000000;stroke-width:0.5;" x="144.145454545" xlink:href="#m8b0675cc3b" y="278.340317754"/>
     <use style="stroke:#000000;stroke-width:0.5;" x="148.654545455" xlink:href="#m8b0675cc3b" y="278.414903584"/>
     <use style="stroke:#000000;stroke-width:0.5;" x="153.163636364" xlink:href="#m8b0675cc3b" y="276.295917367"/>
     <use style="stroke:#000000;stroke-width:0.5;" x="157.672727273" xlink:href="#m8b0675cc3b" y="274.807767751"/>
     <use style="stroke:#000000;stroke-width:0.5;" x="162.181818182" xlink:href="#m8b0675cc3b" y="278.067034224"/>
     <use style="stroke:#000000;stroke-width:0.5;" x="166.690909091" xlink:href="#m8b0675cc3b" y="286.279977211"/>
     <use style="stroke:#000000;stroke-width:0.5;" x="171.2" xlink:href="#m8b0675cc3b" y="291.085400131"/>
     <use style="stroke:#000000;stroke-width:0.5;" x="175.709090909" xlink:href="#m8b0675cc3b" y="279.84855436"/>
     <use style="stroke:#000000;stroke-width:0.5;" x="180.218181818" xlink:href="#m8b0675cc3b" y="297.236138746"/>
     <use style="stroke:#000000;stroke-width:0.5;" x="184.727272727" xlink:href="#m8b0675cc3b" y="297.620503332"/>
     <use style="stroke:#000000;stroke-width:0.5;" x="189.236363636" xlink:href="#m8b0675cc3b" y="285.275596687"/>
     <use style="stroke:#000000;stroke-width:0.5;" x="193.745454545" xlink:href="#m8b0675cc3b" y="279.530929406"/>
     <use style="stroke:#000000;stroke-width:0.5;" x="198.254545455" xlink:href="#m8b0675cc3b" y="278.294424901"/>
     <use style="stroke:#000000;stroke-width:0.5;" x="202.763636364" xlink:href="#m8b0675cc3b" y="274.918028579"/>
     <use style="stroke:#000000;stroke-width:0.5;" x="207.272727273" xlink:href="#m8b0675cc3b" y="275.388976788"/>
     <use style="stroke:#000000;stroke-width:0.5;" x="211.781818182" xlink:href="#m8b0675cc3b" y="276.035160932"/>
     <use style="stroke:#000000;stroke-width:0.5;" x="216.290909091" xlink:href="#m8b0675cc3b" y="274.5028803"/>
     <use style="stroke:#000000;stroke-width:0.5;" x="220.8" xlink:href="#m8b0675cc3b" y="272.766270014"/>
     <use style="stroke:#000000;stroke-width:0.5;" x="225.309090909" xlink:href="#m8b0675cc3b" y="273.46282846"/>
     <use style="stroke:#000000;stroke-width:0.5;" x="229.818181818" xlink:href="#m8b0675cc3b" y="275.853135213"/>
     <use style="stroke:#000000;stroke-width:0.5;" x="234.327272727" xlink:href="#m8b0675cc3b" y="276.652309369"/>
     <use style="stroke:#000000;stroke-width:0.5;" x="238.836363636" xlink:href="#m8b0675cc3b" y="274.644683192"/>
     <use style="stroke:#000000;stroke-width:0.5;" x="243.345454545" xlink:href="#m8b0675cc3b" y="272.845427864"/>
     <use style="stroke:#000000;stroke-width:0.5;" x="247.854545455" xlink:href="#m8b0675cc3b" y="274.471617621"/>
     <use style="stroke:#000000;stroke-width:0.5;" x="252.363636364" xlink:href="#m8b0675cc3b" y="277.520554351"/>
     <use style="stroke:#000000;stroke-width:0.5;" x="256.872727273" xlink:href="#m8b0675cc3b" y="276.864089121"/>
     <use style="stroke:#000000;stroke-width:0.5;" x="261.381818182" xlink:href="#m8b0675cc3b" y="273.4274944"/>
     <use style="stroke:#000000;stroke-width:0.5;" x="265.890909091" xlink:href="#m8b0675cc3b" y="274.865728586"/>
     <use style="stroke:#000000;stroke-width:0.5;" x="270.4" xlink:href="#m8b0675cc3b" y="279.233963293"/>
     <use style="stroke:#000000;stroke-width:0.5;" x="274.909090909" xlink:href="#m8b0675cc3b" y="274.975266426"/>
     <use style="stroke:#000000;stroke-width:0.5;" x="279.418181818" xlink:href="#m8b0675cc3b" y="275.817215853"/>
     <use style="stroke:#000000;stroke-width:0.5;" x="283.927272727" xlink:href="#m8b0675cc3b" y="277.097177065"/>
     <use style="stroke:#000000;stroke-width:0.5;" x="288.436363636" xlink:href="#m8b0675cc3b" y="276.34141539"/>
     <use style="stroke:#000000;stroke-width:0.5;" x="292.945454545" xlink:href="#m8b0675cc3b" y="273.507911525"/>
     <use style="stroke:#000000;stroke-width:0.5;" x="297.454545455" xlink:href="#m8b0675cc3b" y="273.230580879"/>
     <use style="stroke:#000000;stroke-width:0.5;" x="301.963636364" xlink:href="#m8b0675cc3b" y="270.414220587"/>
     <use style="stroke:#000000;stroke-width:0.5;" x="306.472727273" xlink:href="#m8b0675cc3b" y="269.671748121"/>
     <use style="stroke:#000000;stroke-width:0.5;" x="310.981818182" xlink:href="#m8b0675cc3b" y="270.950742338"/>
     <use style="stroke:#000000;stroke-width:0.5;" x="315.490909091" xlink:href="#m8b0675cc3b" y="271.764213213"/>
     <use style="stroke:#000000;stroke-width:0.5;" x="320.0" xlink:href="#m8b0675cc3b" y="267.575665427"/>
     <use style="stroke:#000000;stroke-width:0.5;" x="324.509090909" xlink:href="#m8b0675cc3b" y="271.845283756"/>
     <use style="stroke:#000000;stroke-width:0.5;" x="329.018181818" xlink:href="#m8b0675cc3b" y="273.187684536"/>
     <use style="stroke:#000000;stroke-width:0.5;" x="333.527272727" xlink:href="#m8b0675cc3b" y="269.803867488"/>
     <use style="stroke:#000000;stroke-width:0.5;" x="338.036363636" xlink:href="#m8b0675cc3b" y="269.146509533"/>
     <use style="stroke:#000000;stroke-width:0.5;" x="342.545454545" xlink:href="#m8b0675cc3b" y="271.999628755"/>
     <use style="stroke:#000000;stroke-width:0.5;" x="347.054545455" xlink:href="#m8b0675cc3b" y="273.406080031"/>
     <use style="stroke:#000000;stroke-width:0.5;" x="351.563636364" xlink:href="#m8b0675cc3b" y="271.553941795"/>
     <use style="stroke:#000000;stroke-width:0.5;" x="356.072727273" xlink:href="#m8b0675cc3b" y="269.53483696"/>
     <use style="stroke:#000000;stroke-width:0.5;" x="360.581818182" xlink:href="#m8b0675cc3b" y="270.059631071"/>
     <use style="stroke:#000000;stroke-width:0.5;" x="365.090909091" xlink:href="#m8b0675cc3b" y="271.863694589"/>
     <use style="stroke:#000000;stroke-width:0.5;" x="369.6" xlink:href="#m8b0675cc3b" y="271.957718141"/>
     <use style="stroke:#000000;stroke-width:0.5;" x="374.109090909" xlink:href="#m8b0675cc3b" y="269.734798016"/>
     <use style="stroke:#000000;stroke-width:0.5;" x="378.618181818" xlink:href="#m8b0675cc3b" y="267.293108708"/>
     <use style="stroke:#000000;stroke-width:0.5;" x="383.127272727" xlink:href="#m8b0675cc3b" y="265.748238628"/>
     <use style="stroke:#000000;stroke-width:0.5;" x="387.636363636" xlink:href="#m8b0675cc3b" y="262.49813759"/>
     <use style="stroke:#000000;stroke-width:0.5;" x="392.145454545" xlink:href="#m8b0675cc3b" y="251.954647511"/>
     <use style="stroke:#000000;stroke-width:0.5;" x="396.654545455" xlink:href="#m8b0675cc3b" y="220.334612693"/>
     <use style="stroke:#000000;stroke-width:0.5;" x="401.163636364" xlink:href="#m8b0675cc3b" y="232.459123187"/>
     <use style="stroke:#000000;stroke-width:0.5;" x="405.672727273" xlink:href="#m8b0675cc3b" y="216.479621178"/>
     <use style="stroke:#000000;stroke-width:0.5;" x="410.181818182" xlink:href="#m8b0675cc3b" y="195.629440417"/>
     <use style="stroke:#000000;stroke-width:0.5;" x="414.690909091" xlink:href="#m8b0675cc3b" y="248.658943544"/>
     <use style="stroke:#000000;stroke-width:0.5;" x="419.2" xlink:href="#m8b0675cc3b" y="240.127640202"/>
     <use style="stroke:#000000;stroke-width:0.5;" x="423.709090909" xlink:href="#m8b0675cc3b" y="251.72831984"/>
     <use style="stroke:#000000;stroke-width:0.5;" x="428.218181818" xlink:href="#m8b0675cc3b" y="264.648817621"/>
     <use style="stroke:#000000;stroke-width:0.5;" x="432.727272727" xlink:href="#m8b0675cc3b" y="269.330767786"/>
     <use style="stroke:#000000;stroke-width:0.5;" x="437.236363636" xlink:href="#m8b0675cc3b" y="267.828147532"/>
     <use style="stroke:#000000;stroke-width:0.5;" x="441.745454545" xlink:href="#m8b0675cc3b" y="265.910800478"/>
     <use style="stroke:#000000;stroke-width:0.5;" x="446.254545455" xlink:href="#m8b0675cc3b" y="266.719012149"/>
     <use style="stroke:#000000;stroke-width:0.5;" x="450.763636364" xlink:href="#m8b0675cc3b" y="269.327391737"/>
     <use style="stroke:#000000;stroke-width:0.5;" x="455.272727273" xlink:href="#m8b0675cc3b" y="271.210528015"/>
     <use style="stroke:#000000;stroke-width:0.5;" x="459.781818182" xlink:href="#m8b0675cc3b" y="271.160474008"/>
     <use style="stroke:#000000;stroke-width:0.5;" x="464.290909091" xlink:href="#m8b0675cc3b" y="270.042230268"/>
     <use style="stroke:#000000;stroke-width:0.5;" x="468.8" xlink:href="#m8b0675cc3b" y="269.43544951"/>
     <use style="stroke:#000000;stroke-width:0.5;" x="473.309090909" xlink:href="#m8b0675cc3b" y="270.019903191"/>
     <use style="stroke:#000000;stroke-width:0.5;" x="477.818181818" xlink:href="#m8b0675cc3b" y="271.20762697"/>
     <use style="stroke:#000000;stroke-width:0.5;" x="482.327272727" xlink:href="#m8b0675cc3b" y="271.93911534"/>
     <use style="stroke:#000000;stroke-width:0.5;" x="486.836363636" xlink:href="#m8b0675cc3b" y="271.54518972"/>
     <use style="stroke:#000000;stroke-width:0.5;" x="491.345454545" xlink:href="#m8b0675cc3b" y="269.931223488"/>
     <use style="stroke:#000000;stroke-width:0.5;" x="495.854545455" xlink:href="#m8b0675cc3b" y="267.312145978"/>
     <use style="stroke:#000000;stroke-width:0.5;" x="500.363636364" xlink:href="#m8b0675cc3b" y="264.077272847"/>
     <use style="stroke:#000000;stroke-width:0.5;" x="504.872727273" xlink:href="#m8b0675cc3b" y="260.982662686"/>
     <use style="stroke:#000000;stroke-width:0.5;" x="509.381818182" xlink:href="#m8b0675cc3b" y="168.940890591"/>
     <use style="stroke:#000000;stroke-width:0.5;" x="513.890909091" xlink:href="#m8b0675cc3b" y="46.7098510251"/>
     <use style="stroke:#000000;stroke-width:0.5;" x="518.4" xlink:href="#m8b0675cc3b" y="230.639699412"/>
    </g>
   </g>
   <g id="matplotlib.axis_1">
    <g id="xtick_1">
     <g id="line2d_3">
      <defs>
       <path d="
M0 0
L0 -4" id="m93b0483c22" style="stroke:#000000;stroke-width:0.5;"/>
      </defs>
      <g>
       <use style="stroke:#000000;stroke-width:0.5;" x="72.0" xlink:href="#m93b0483c22" y="388.8"/>
      </g>
     </g>
     <g id="line2d_4">
      <defs>
       <path d="
M0 0
L0 4" id="m741efc42ff" style="stroke:#000000;stroke-width:0.5;"/>
      </defs>
      <g>
       <use style="stroke:#000000;stroke-width:0.5;" x="72.0" xlink:href="#m741efc42ff" y="43.2"/>
      </g>
     </g>
     <g id="text_1">
      <!-- −2000 -->
      <defs>
       <path d="
M10.5938 35.5
L73.1875 35.5
L73.1875 27.2031
L10.5938 27.2031
z
" id="BitstreamVeraSans-Roman-2212"/>
       <path d="
M19.1875 8.29688
L53.6094 8.29688
L53.6094 0
L7.32812 0
L7.32812 8.29688
Q12.9375 14.1094 22.625 23.8906
Q32.3281 33.6875 34.8125 36.5312
Q39.5469 41.8438 41.4219 45.5312
Q43.3125 49.2188 43.3125 52.7812
Q43.3125 58.5938 39.2344 62.25
Q35.1562 65.9219 28.6094 65.9219
Q23.9688 65.9219 18.8125 64.3125
Q13.6719 62.7031 7.8125 59.4219
L7.8125 69.3906
Q13.7656 71.7812 18.9375 73
Q24.125 74.2188 28.4219 74.2188
Q39.75 74.2188 46.4844 68.5469
Q53.2188 62.8906 53.2188 53.4219
Q53.2188 48.9219 51.5312 44.8906
Q49.8594 40.875 45.4062 35.4062
Q44.1875 33.9844 37.6406 27.2188
Q31.1094 20.4531 19.1875 8.29688" id="BitstreamVeraSans-Roman-32"/>
       <path d="
M31.7812 66.4062
Q24.1719 66.4062 20.3281 58.9062
Q16.5 51.4219 16.5 36.375
Q16.5 21.3906 20.3281 13.8906
Q24.1719 6.39062 31.7812 6.39062
Q39.4531 6.39062 43.2812 13.8906
Q47.125 21.3906 47.125 36.375
Q47.125 51.4219 43.2812 58.9062
Q39.4531 66.4062 31.7812 66.4062
M31.7812 74.2188
Q44.0469 74.2188 50.5156 64.5156
Q56.9844 54.8281 56.9844 36.375
Q56.9844 17.9688 50.5156 8.26562
Q44.0469 -1.42188 31.7812 -1.42188
Q19.5312 -1.42188 13.0625 8.26562
Q6.59375 17.9688 6.59375 36.375
Q6.59375 54.8281 13.0625 64.5156
Q19.5312 74.2188 31.7812 74.2188" id="BitstreamVeraSans-Roman-30"/>
      </defs>
      <g transform="translate(52.73625 401.918125)scale(0.12 -0.12)">
       <use xlink:href="#BitstreamVeraSans-Roman-2212"/>
       <use x="83.7890625" xlink:href="#BitstreamVeraSans-Roman-32"/>
       <use x="147.412109375" xlink:href="#BitstreamVeraSans-Roman-30"/>
       <use x="211.03515625" xlink:href="#BitstreamVeraSans-Roman-30"/>
       <use x="274.658203125" xlink:href="#BitstreamVeraSans-Roman-30"/>
      </g>
     </g>
    </g>
    <g id="xtick_2">
     <g id="line2d_5">
      <g>
       <use style="stroke:#000000;stroke-width:0.5;" x="127.8" xlink:href="#m93b0483c22" y="388.8"/>
      </g>
     </g>
     <g id="line2d_6">
      <g>
       <use style="stroke:#000000;stroke-width:0.5;" x="127.8" xlink:href="#m741efc42ff" y="43.2"/>
      </g>
     </g>
     <g id="text_2">
      <!-- −1500 -->
      <defs>
       <path d="
M12.4062 8.29688
L28.5156 8.29688
L28.5156 63.9219
L10.9844 60.4062
L10.9844 69.3906
L28.4219 72.9062
L38.2812 72.9062
L38.2812 8.29688
L54.3906 8.29688
L54.3906 0
L12.4062 0
z
" id="BitstreamVeraSans-Roman-31"/>
       <path d="
M10.7969 72.9062
L49.5156 72.9062
L49.5156 64.5938
L19.8281 64.5938
L19.8281 46.7344
Q21.9688 47.4688 24.1094 47.8281
Q26.2656 48.1875 28.4219 48.1875
Q40.625 48.1875 47.75 41.5
Q54.8906 34.8125 54.8906 23.3906
Q54.8906 11.625 47.5625 5.09375
Q40.2344 -1.42188 26.9062 -1.42188
Q22.3125 -1.42188 17.5469 -0.640625
Q12.7969 0.140625 7.71875 1.70312
L7.71875 11.625
Q12.1094 9.23438 16.7969 8.0625
Q21.4844 6.89062 26.7031 6.89062
Q35.1562 6.89062 40.0781 11.3281
Q45.0156 15.7656 45.0156 23.3906
Q45.0156 31 40.0781 35.4375
Q35.1562 39.8906 26.7031 39.8906
Q22.75 39.8906 18.8125 39.0156
Q14.8906 38.1406 10.7969 36.2812
z
" id="BitstreamVeraSans-Roman-35"/>
      </defs>
      <g transform="translate(108.53625 401.918125)scale(0.12 -0.12)">
       <use xlink:href="#BitstreamVeraSans-Roman-2212"/>
       <use x="83.7890625" xlink:href="#BitstreamVeraSans-Roman-31"/>
       <use x="147.412109375" xlink:href="#BitstreamVeraSans-Roman-35"/>
       <use x="211.03515625" xlink:href="#BitstreamVeraSans-Roman-30"/>
       <use x="274.658203125" xlink:href="#BitstreamVeraSans-Roman-30"/>
      </g>
     </g>
    </g>
    <g id="xtick_3">
     <g id="line2d_7">
      <g>
       <use style="stroke:#000000;stroke-width:0.5;" x="183.6" xlink:href="#m93b0483c22" y="388.8"/>
      </g>
     </g>
     <g id="line2d_8">
      <g>
       <use style="stroke:#000000;stroke-width:0.5;" x="183.6" xlink:href="#m741efc42ff" y="43.2"/>
      </g>
     </g>
     <g id="text_3">
      <!-- −1000 -->
      <g transform="translate(164.33625 401.918125)scale(0.12 -0.12)">
       <use xlink:href="#BitstreamVeraSans-Roman-2212"/>
       <use x="83.7890625" xlink:href="#BitstreamVeraSans-Roman-31"/>
       <use x="147.412109375" xlink:href="#BitstreamVeraSans-Roman-30"/>
       <use x="211.03515625" xlink:href="#BitstreamVeraSans-Roman-30"/>
       <use x="274.658203125" xlink:href="#BitstreamVeraSans-Roman-30"/>
      </g>
     </g>
    </g>
    <g id="xtick_4">
     <g id="line2d_9">
      <g>
       <use style="stroke:#000000;stroke-width:0.5;" x="239.4" xlink:href="#m93b0483c22" y="388.8"/>
      </g>
     </g>
     <g id="line2d_10">
      <g>
       <use style="stroke:#000000;stroke-width:0.5;" x="239.4" xlink:href="#m741efc42ff" y="43.2"/>
      </g>
     </g>
     <g id="text_4">
      <!-- −500 -->
      <g transform="translate(223.95375 401.918125)scale(0.12 -0.12)">
       <use xlink:href="#BitstreamVeraSans-Roman-2212"/>
       <use x="83.7890625" xlink:href="#BitstreamVeraSans-Roman-35"/>
       <use x="147.412109375" xlink:href="#BitstreamVeraSans-Roman-30"/>
       <use x="211.03515625" xlink:href="#BitstreamVeraSans-Roman-30"/>
      </g>
     </g>
    </g>
    <g id="xtick_5">
     <g id="line2d_11">
      <g>
       <use style="stroke:#000000;stroke-width:0.5;" x="295.2" xlink:href="#m93b0483c22" y="388.8"/>
      </g>
     </g>
     <g id="line2d_12">
      <g>
       <use style="stroke:#000000;stroke-width:0.5;" x="295.2" xlink:href="#m741efc42ff" y="43.2"/>
      </g>
     </g>
     <g id="text_5">
      <!-- 0 -->
      <g transform="translate(292.1765625 401.918125)scale(0.12 -0.12)">
       <use xlink:href="#BitstreamVeraSans-Roman-30"/>
      </g>
     </g>
    </g>
    <g id="xtick_6">
     <g id="line2d_13">
      <g>
       <use style="stroke:#000000;stroke-width:0.5;" x="351.0" xlink:href="#m93b0483c22" y="388.8"/>
      </g>
     </g>
     <g id="line2d_14">
      <g>
       <use style="stroke:#000000;stroke-width:0.5;" x="351.0" xlink:href="#m741efc42ff" y="43.2"/>
      </g>
     </g>
     <g id="text_6">
      <!-- 500 -->
      <g transform="translate(340.4090625 401.918125)scale(0.12 -0.12)">
       <use xlink:href="#BitstreamVeraSans-Roman-35"/>
       <use x="63.623046875" xlink:href="#BitstreamVeraSans-Roman-30"/>
       <use x="127.24609375" xlink:href="#BitstreamVeraSans-Roman-30"/>
      </g>
     </g>
    </g>
    <g id="xtick_7">
     <g id="line2d_15">
      <g>
       <use style="stroke:#000000;stroke-width:0.5;" x="406.8" xlink:href="#m93b0483c22" y="388.8"/>
      </g>
     </g>
     <g id="line2d_16">
      <g>
       <use style="stroke:#000000;stroke-width:0.5;" x="406.8" xlink:href="#m741efc42ff" y="43.2"/>
      </g>
     </g>
     <g id="text_7">
      <!-- 1000 -->
      <g transform="translate(392.5875 401.918125)scale(0.12 -0.12)">
       <use xlink:href="#BitstreamVeraSans-Roman-31"/>
       <use x="63.623046875" xlink:href="#BitstreamVeraSans-Roman-30"/>
       <use x="127.24609375" xlink:href="#BitstreamVeraSans-Roman-30"/>
       <use x="190.869140625" xlink:href="#BitstreamVeraSans-Roman-30"/>
      </g>
     </g>
    </g>
    <g id="xtick_8">
     <g id="line2d_17">
      <g>
       <use style="stroke:#000000;stroke-width:0.5;" x="462.6" xlink:href="#m93b0483c22" y="388.8"/>
      </g>
     </g>
     <g id="line2d_18">
      <g>
       <use style="stroke:#000000;stroke-width:0.5;" x="462.6" xlink:href="#m741efc42ff" y="43.2"/>
      </g>
     </g>
     <g id="text_8">
      <!-- 1500 -->
      <g transform="translate(448.3875 401.918125)scale(0.12 -0.12)">
       <use xlink:href="#BitstreamVeraSans-Roman-31"/>
       <use x="63.623046875" xlink:href="#BitstreamVeraSans-Roman-35"/>
       <use x="127.24609375" xlink:href="#BitstreamVeraSans-Roman-30"/>
       <use x="190.869140625" xlink:href="#BitstreamVeraSans-Roman-30"/>
      </g>
     </g>
    </g>
    <g id="xtick_9">
     <g id="line2d_19">
      <g>
       <use style="stroke:#000000;stroke-width:0.5;" x="518.4" xlink:href="#m93b0483c22" y="388.8"/>
      </g>
     </g>
     <g id="line2d_20">
      <g>
       <use style="stroke:#000000;stroke-width:0.5;" x="518.4" xlink:href="#m741efc42ff" y="43.2"/>
      </g>
     </g>
     <g id="text_9">
      <!-- 2000 -->
      <g transform="translate(503.968125 401.918125)scale(0.12 -0.12)">
       <use xlink:href="#BitstreamVeraSans-Roman-32"/>
       <use x="63.623046875" xlink:href="#BitstreamVeraSans-Roman-30"/>
       <use x="127.24609375" xlink:href="#BitstreamVeraSans-Roman-30"/>
       <use x="190.869140625" xlink:href="#BitstreamVeraSans-Roman-30"/>
      </g>
     </g>
    </g>
    <g id="text_10">
     <!-- detuning (kHz) -->
     <defs>
      <path d="
M5.51562 54.6875
L48.1875 54.6875
L48.1875 46.4844
L14.4062 7.17188
L48.1875 7.17188
L48.1875 0
L4.29688 0
L4.29688 8.20312
L38.0938 47.5156
L5.51562 47.5156
z
" id="BitstreamVeraSans-Roman-7a"/>
      <path id="BitstreamVeraSans-Roman-20"/>
      <path d="
M54.8906 33.0156
L54.8906 0
L45.9062 0
L45.9062 32.7188
Q45.9062 40.4844 42.875 44.3281
Q39.8438 48.1875 33.7969 48.1875
Q26.5156 48.1875 22.3125 43.5469
Q18.1094 38.9219 18.1094 30.9062
L18.1094 0
L9.07812 0
L9.07812 54.6875
L18.1094 54.6875
L18.1094 46.1875
Q21.3438 51.125 25.7031 53.5625
Q30.0781 56 35.7969 56
Q45.2188 56 50.0469 50.1719
Q54.8906 44.3438 54.8906 33.0156" id="BitstreamVeraSans-Roman-6e"/>
      <path d="
M31 75.875
Q24.4688 64.6562 21.2812 53.6562
Q18.1094 42.6719 18.1094 31.3906
Q18.1094 20.125 21.3125 9.0625
Q24.5156 -2 31 -13.1875
L23.1875 -13.1875
Q15.875 -1.70312 12.2344 9.375
Q8.59375 20.4531 8.59375 31.3906
Q8.59375 42.2812 12.2031 53.3125
Q15.8281 64.3594 23.1875 75.875
z
" id="BitstreamVeraSans-Roman-28"/>
      <path d="
M9.07812 75.9844
L18.1094 75.9844
L18.1094 31.1094
L44.9219 54.6875
L56.3906 54.6875
L27.3906 29.1094
L57.625 0
L45.9062 0
L18.1094 26.7031
L18.1094 0
L9.07812 0
z
" id="BitstreamVeraSans-Roman-6b"/>
      <path d="
M8.01562 75.875
L15.8281 75.875
Q23.1406 64.3594 26.7812 53.3125
Q30.4219 42.2812 30.4219 31.3906
Q30.4219 20.4531 26.7812 9.375
Q23.1406 -1.70312 15.8281 -13.1875
L8.01562 -13.1875
Q14.5 -2 17.7031 9.0625
Q20.9062 20.125 20.9062 31.3906
Q20.9062 42.6719 17.7031 53.6562
Q14.5 64.6562 8.01562 75.875" id="BitstreamVeraSans-Roman-29"/>
      <path d="
M9.42188 54.6875
L18.4062 54.6875
L18.4062 0
L9.42188 0
z

M9.42188 75.9844
L18.4062 75.9844
L18.4062 64.5938
L9.42188 64.5938
z
" id="BitstreamVeraSans-Roman-69"/>
      <path d="
M56.2031 29.5938
L56.2031 25.2031
L14.8906 25.2031
Q15.4844 15.9219 20.4844 11.0625
Q25.4844 6.20312 34.4219 6.20312
Q39.5938 6.20312 44.4531 7.46875
Q49.3125 8.73438 54.1094 11.2812
L54.1094 2.78125
Q49.2656 0.734375 44.1875 -0.34375
Q39.1094 -1.42188 33.8906 -1.42188
Q20.7969 -1.42188 13.1562 6.1875
Q5.51562 13.8125 5.51562 26.8125
Q5.51562 40.2344 12.7656 48.1094
Q20.0156 56 32.3281 56
Q43.3594 56 49.7812 48.8906
Q56.2031 41.7969 56.2031 29.5938
M47.2188 32.2344
Q47.125 39.5938 43.0938 43.9844
Q39.0625 48.3906 32.4219 48.3906
Q24.9062 48.3906 20.3906 44.1406
Q15.875 39.8906 15.1875 32.1719
z
" id="BitstreamVeraSans-Roman-65"/>
      <path d="
M45.4062 46.3906
L45.4062 75.9844
L54.3906 75.9844
L54.3906 0
L45.4062 0
L45.4062 8.20312
Q42.5781 3.32812 38.25 0.953125
Q33.9375 -1.42188 27.875 -1.42188
Q17.9688 -1.42188 11.7344 6.48438
Q5.51562 14.4062 5.51562 27.2969
Q5.51562 40.1875 11.7344 48.0938
Q17.9688 56 27.875 56
Q33.9375 56 38.25 53.625
Q42.5781 51.2656 45.4062 46.3906
M14.7969 27.2969
Q14.7969 17.3906 18.875 11.75
Q22.9531 6.10938 30.0781 6.10938
Q37.2031 6.10938 41.2969 11.75
Q45.4062 17.3906 45.4062 27.2969
Q45.4062 37.2031 41.2969 42.8438
Q37.2031 48.4844 30.0781 48.4844
Q22.9531 48.4844 18.875 42.8438
Q14.7969 37.2031 14.7969 27.2969" id="BitstreamVeraSans-Roman-64"/>
      <path d="
M18.3125 70.2188
L18.3125 54.6875
L36.8125 54.6875
L36.8125 47.7031
L18.3125 47.7031
L18.3125 18.0156
Q18.3125 11.3281 20.1406 9.42188
Q21.9688 7.51562 27.5938 7.51562
L36.8125 7.51562
L36.8125 0
L27.5938 0
Q17.1875 0 13.2344 3.875
Q9.28125 7.76562 9.28125 18.0156
L9.28125 47.7031
L2.6875 47.7031
L2.6875 54.6875
L9.28125 54.6875
L9.28125 70.2188
z
" id="BitstreamVeraSans-Roman-74"/>
      <path d="
M8.5 21.5781
L8.5 54.6875
L17.4844 54.6875
L17.4844 21.9219
Q17.4844 14.1562 20.5 10.2656
Q23.5312 6.39062 29.5938 6.39062
Q36.8594 6.39062 41.0781 11.0312
Q45.3125 15.6719 45.3125 23.6875
L45.3125 54.6875
L54.2969 54.6875
L54.2969 0
L45.3125 0
L45.3125 8.40625
Q42.0469 3.42188 37.7188 1
Q33.4062 -1.42188 27.6875 -1.42188
Q18.2656 -1.42188 13.375 4.4375
Q8.5 10.2969 8.5 21.5781" id="BitstreamVeraSans-Roman-75"/>
      <path d="
M45.4062 27.9844
Q45.4062 37.75 41.375 43.1094
Q37.3594 48.4844 30.0781 48.4844
Q22.8594 48.4844 18.8281 43.1094
Q14.7969 37.75 14.7969 27.9844
Q14.7969 18.2656 18.8281 12.8906
Q22.8594 7.51562 30.0781 7.51562
Q37.3594 7.51562 41.375 12.8906
Q45.4062 18.2656 45.4062 27.9844
M54.3906 6.78125
Q54.3906 -7.17188 48.1875 -13.9844
Q42 -20.7969 29.2031 -20.7969
Q24.4688 -20.7969 20.2656 -20.0938
Q16.0625 -19.3906 12.1094 -17.9219
L12.1094 -9.1875
Q16.0625 -11.3281 19.9219 -12.3438
Q23.7812 -13.375 27.7812 -13.375
Q36.625 -13.375 41.0156 -8.76562
Q45.4062 -4.15625 45.4062 5.17188
L45.4062 9.625
Q42.625 4.78125 38.2812 2.39062
Q33.9375 0 27.875 0
Q17.8281 0 11.6719 7.65625
Q5.51562 15.3281 5.51562 27.9844
Q5.51562 40.6719 11.6719 48.3281
Q17.8281 56 27.875 56
Q33.9375 56 38.2812 53.6094
Q42.625 51.2188 45.4062 46.3906
L45.4062 54.6875
L54.3906 54.6875
z
" id="BitstreamVeraSans-Roman-67"/>
      <path d="
M9.8125 72.9062
L19.6719 72.9062
L19.6719 43.0156
L55.5156 43.0156
L55.5156 72.9062
L65.375 72.9062
L65.375 0
L55.5156 0
L55.5156 34.7188
L19.6719 34.7188
L19.6719 0
L9.8125 0
z
" id="BitstreamVeraSans-Roman-48"/>
     </defs>
     <g transform="translate(251.2546875 418.531875)scale(0.12 -0.12)">
      <use xlink:href="#BitstreamVeraSans-Roman-64"/>
      <use x="63.4765625" xlink:href="#BitstreamVeraSans-Roman-65"/>
      <use x="125.0" xlink:href="#BitstreamVeraSans-Roman-74"/>
      <use x="164.208984375" xlink:href="#BitstreamVeraSans-Roman-75"/>
      <use x="227.587890625" xlink:href="#BitstreamVeraSans-Roman-6e"/>
      <use x="290.966796875" xlink:href="#BitstreamVeraSans-Roman-69"/>
      <use x="318.75" xlink:href="#BitstreamVeraSans-Roman-6e"/>
      <use x="382.12890625" xlink:href="#BitstreamVeraSans-Roman-67"/>
      <use x="445.60546875" xlink:href="#BitstreamVeraSans-Roman-20"/>
      <use x="477.392578125" xlink:href="#BitstreamVeraSans-Roman-28"/>
      <use x="516.40625" xlink:href="#BitstreamVeraSans-Roman-6b"/>
      <use x="574.31640625" xlink:href="#BitstreamVeraSans-Roman-48"/>
      <use x="649.51171875" xlink:href="#BitstreamVeraSans-Roman-7a"/>
      <use x="702.001953125" xlink:href="#BitstreamVeraSans-Roman-29"/>
     </g>
    </g>
   </g>
   <g id="matplotlib.axis_2">
    <g id="ytick_1">
     <g id="line2d_21">
      <defs>
       <path d="
M0 0
L4 0" id="m728421d6d4" style="stroke:#000000;stroke-width:0.5;"/>
      </defs>
      <g>
       <use style="stroke:#000000;stroke-width:0.5;" x="72.0" xlink:href="#m728421d6d4" y="388.8"/>
      </g>
     </g>
     <g id="line2d_22">
      <defs>
       <path d="
M0 0
L-4 0" id="mcb0005524f" style="stroke:#000000;stroke-width:0.5;"/>
      </defs>
      <g>
       <use style="stroke:#000000;stroke-width:0.5;" x="518.4" xlink:href="#mcb0005524f" y="388.8"/>
      </g>
     </g>
     <g id="text_11">
      <!-- 0.0 -->
      <defs>
       <path d="
M10.6875 12.4062
L21 12.4062
L21 0
L10.6875 0
z
" id="BitstreamVeraSans-Roman-2e"/>
      </defs>
      <g transform="translate(50.504375 392.11125)scale(0.12 -0.12)">
       <use xlink:href="#BitstreamVeraSans-Roman-30"/>
       <use x="63.623046875" xlink:href="#BitstreamVeraSans-Roman-2e"/>
       <use x="95.41015625" xlink:href="#BitstreamVeraSans-Roman-30"/>
      </g>
     </g>
    </g>
    <g id="ytick_2">
     <g id="line2d_23">
      <g>
       <use style="stroke:#000000;stroke-width:0.5;" x="72.0" xlink:href="#m728421d6d4" y="350.4"/>
      </g>
     </g>
     <g id="line2d_24">
      <g>
       <use style="stroke:#000000;stroke-width:0.5;" x="518.4" xlink:href="#mcb0005524f" y="350.4"/>
      </g>
     </g>
     <g id="text_12">
      <!-- 0.1 -->
      <g transform="translate(50.815625 353.71125)scale(0.12 -0.12)">
       <use xlink:href="#BitstreamVeraSans-Roman-30"/>
       <use x="63.623046875" xlink:href="#BitstreamVeraSans-Roman-2e"/>
       <use x="95.41015625" xlink:href="#BitstreamVeraSans-Roman-31"/>
      </g>
     </g>
    </g>
    <g id="ytick_3">
     <g id="line2d_25">
      <g>
       <use style="stroke:#000000;stroke-width:0.5;" x="72.0" xlink:href="#m728421d6d4" y="312.0"/>
      </g>
     </g>
     <g id="line2d_26">
      <g>
       <use style="stroke:#000000;stroke-width:0.5;" x="518.4" xlink:href="#mcb0005524f" y="312.0"/>
      </g>
     </g>
     <g id="text_13">
      <!-- 0.2 -->
      <g transform="translate(50.909375 315.31125)scale(0.12 -0.12)">
       <use xlink:href="#BitstreamVeraSans-Roman-30"/>
       <use x="63.623046875" xlink:href="#BitstreamVeraSans-Roman-2e"/>
       <use x="95.41015625" xlink:href="#BitstreamVeraSans-Roman-32"/>
      </g>
     </g>
    </g>
    <g id="ytick_4">
     <g id="line2d_27">
      <g>
       <use style="stroke:#000000;stroke-width:0.5;" x="72.0" xlink:href="#m728421d6d4" y="273.6"/>
      </g>
     </g>
     <g id="line2d_28">
      <g>
       <use style="stroke:#000000;stroke-width:0.5;" x="518.4" xlink:href="#mcb0005524f" y="273.6"/>
      </g>
     </g>
     <g id="text_14">
      <!-- 0.3 -->
      <defs>
       <path d="
M40.5781 39.3125
Q47.6562 37.7969 51.625 33
Q55.6094 28.2188 55.6094 21.1875
Q55.6094 10.4062 48.1875 4.48438
Q40.7656 -1.42188 27.0938 -1.42188
Q22.5156 -1.42188 17.6562 -0.515625
Q12.7969 0.390625 7.625 2.20312
L7.625 11.7188
Q11.7188 9.32812 16.5938 8.10938
Q21.4844 6.89062 26.8125 6.89062
Q36.0781 6.89062 40.9375 10.5469
Q45.7969 14.2031 45.7969 21.1875
Q45.7969 27.6406 41.2812 31.2656
Q36.7656 34.9062 28.7188 34.9062
L20.2188 34.9062
L20.2188 43.0156
L29.1094 43.0156
Q36.375 43.0156 40.2344 45.9219
Q44.0938 48.8281 44.0938 54.2969
Q44.0938 59.9062 40.1094 62.9062
Q36.1406 65.9219 28.7188 65.9219
Q24.6562 65.9219 20.0156 65.0312
Q15.375 64.1562 9.8125 62.3125
L9.8125 71.0938
Q15.4375 72.6562 20.3438 73.4375
Q25.25 74.2188 29.5938 74.2188
Q40.8281 74.2188 47.3594 69.1094
Q53.9062 64.0156 53.9062 55.3281
Q53.9062 49.2656 50.4375 45.0938
Q46.9688 40.9219 40.5781 39.3125" id="BitstreamVeraSans-Roman-33"/>
      </defs>
      <g transform="translate(50.669375 276.91125)scale(0.12 -0.12)">
       <use xlink:href="#BitstreamVeraSans-Roman-30"/>
       <use x="63.623046875" xlink:href="#BitstreamVeraSans-Roman-2e"/>
       <use x="95.41015625" xlink:href="#BitstreamVeraSans-Roman-33"/>
      </g>
     </g>
    </g>
    <g id="ytick_5">
     <g id="line2d_29">
      <g>
       <use style="stroke:#000000;stroke-width:0.5;" x="72.0" xlink:href="#m728421d6d4" y="235.2"/>
      </g>
     </g>
     <g id="line2d_30">
      <g>
       <use style="stroke:#000000;stroke-width:0.5;" x="518.4" xlink:href="#mcb0005524f" y="235.2"/>
      </g>
     </g>
     <g id="text_15">
      <!-- 0.4 -->
      <defs>
       <path d="
M37.7969 64.3125
L12.8906 25.3906
L37.7969 25.3906
z

M35.2031 72.9062
L47.6094 72.9062
L47.6094 25.3906
L58.0156 25.3906
L58.0156 17.1875
L47.6094 17.1875
L47.6094 0
L37.7969 0
L37.7969 17.1875
L4.89062 17.1875
L4.89062 26.7031
z
" id="BitstreamVeraSans-Roman-34"/>
      </defs>
      <g transform="translate(50.380625 238.51125)scale(0.12 -0.12)">
       <use xlink:href="#BitstreamVeraSans-Roman-30"/>
       <use x="63.623046875" xlink:href="#BitstreamVeraSans-Roman-2e"/>
       <use x="95.41015625" xlink:href="#BitstreamVeraSans-Roman-34"/>
      </g>
     </g>
    </g>
    <g id="ytick_6">
     <g id="line2d_31">
      <g>
       <use style="stroke:#000000;stroke-width:0.5;" x="72.0" xlink:href="#m728421d6d4" y="196.8"/>
      </g>
     </g>
     <g id="line2d_32">
      <g>
       <use style="stroke:#000000;stroke-width:0.5;" x="518.4" xlink:href="#mcb0005524f" y="196.8"/>
      </g>
     </g>
     <g id="text_16">
      <!-- 0.5 -->
      <g transform="translate(50.755625 200.11125)scale(0.12 -0.12)">
       <use xlink:href="#BitstreamVeraSans-Roman-30"/>
       <use x="63.623046875" xlink:href="#BitstreamVeraSans-Roman-2e"/>
       <use x="95.41015625" xlink:href="#BitstreamVeraSans-Roman-35"/>
      </g>
     </g>
    </g>
    <g id="ytick_7">
     <g id="line2d_33">
      <g>
       <use style="stroke:#000000;stroke-width:0.5;" x="72.0" xlink:href="#m728421d6d4" y="158.4"/>
      </g>
     </g>
     <g id="line2d_34">
      <g>
       <use style="stroke:#000000;stroke-width:0.5;" x="518.4" xlink:href="#mcb0005524f" y="158.4"/>
      </g>
     </g>
     <g id="text_17">
      <!-- 0.6 -->
      <defs>
       <path d="
M33.0156 40.375
Q26.375 40.375 22.4844 35.8281
Q18.6094 31.2969 18.6094 23.3906
Q18.6094 15.5312 22.4844 10.9531
Q26.375 6.39062 33.0156 6.39062
Q39.6562 6.39062 43.5312 10.9531
Q47.4062 15.5312 47.4062 23.3906
Q47.4062 31.2969 43.5312 35.8281
Q39.6562 40.375 33.0156 40.375
M52.5938 71.2969
L52.5938 62.3125
Q48.875 64.0625 45.0938 64.9844
Q41.3125 65.9219 37.5938 65.9219
Q27.8281 65.9219 22.6719 59.3281
Q17.5312 52.7344 16.7969 39.4062
Q19.6719 43.6562 24.0156 45.9219
Q28.375 48.1875 33.5938 48.1875
Q44.5781 48.1875 50.9531 41.5156
Q57.3281 34.8594 57.3281 23.3906
Q57.3281 12.1562 50.6875 5.35938
Q44.0469 -1.42188 33.0156 -1.42188
Q20.3594 -1.42188 13.6719 8.26562
Q6.98438 17.9688 6.98438 36.375
Q6.98438 53.6562 15.1875 63.9375
Q23.3906 74.2188 37.2031 74.2188
Q40.9219 74.2188 44.7031 73.4844
Q48.4844 72.75 52.5938 71.2969" id="BitstreamVeraSans-Roman-36"/>
      </defs>
      <g transform="translate(50.463125 161.71125)scale(0.12 -0.12)">
       <use xlink:href="#BitstreamVeraSans-Roman-30"/>
       <use x="63.623046875" xlink:href="#BitstreamVeraSans-Roman-2e"/>
       <use x="95.41015625" xlink:href="#BitstreamVeraSans-Roman-36"/>
      </g>
     </g>
    </g>
    <g id="ytick_8">
     <g id="line2d_35">
      <g>
       <use style="stroke:#000000;stroke-width:0.5;" x="72.0" xlink:href="#m728421d6d4" y="120.0"/>
      </g>
     </g>
     <g id="line2d_36">
      <g>
       <use style="stroke:#000000;stroke-width:0.5;" x="518.4" xlink:href="#mcb0005524f" y="120.0"/>
      </g>
     </g>
     <g id="text_18">
      <!-- 0.7 -->
      <defs>
       <path d="
M8.20312 72.9062
L55.0781 72.9062
L55.0781 68.7031
L28.6094 0
L18.3125 0
L43.2188 64.5938
L8.20312 64.5938
z
" id="BitstreamVeraSans-Roman-37"/>
      </defs>
      <g transform="translate(50.733125 123.31125)scale(0.12 -0.12)">
       <use xlink:href="#BitstreamVeraSans-Roman-30"/>
       <use x="63.623046875" xlink:href="#BitstreamVeraSans-Roman-2e"/>
       <use x="95.41015625" xlink:href="#BitstreamVeraSans-Roman-37"/>
      </g>
     </g>
    </g>
    <g id="ytick_9">
     <g id="line2d_37">
      <g>
       <use style="stroke:#000000;stroke-width:0.5;" x="72.0" xlink:href="#m728421d6d4" y="81.6"/>
      </g>
     </g>
     <g id="line2d_38">
      <g>
       <use style="stroke:#000000;stroke-width:0.5;" x="518.4" xlink:href="#mcb0005524f" y="81.6"/>
      </g>
     </g>
     <g id="text_19">
      <!-- 0.8 -->
      <defs>
       <path d="
M31.7812 34.625
Q24.75 34.625 20.7188 30.8594
Q16.7031 27.0938 16.7031 20.5156
Q16.7031 13.9219 20.7188 10.1562
Q24.75 6.39062 31.7812 6.39062
Q38.8125 6.39062 42.8594 10.1719
Q46.9219 13.9688 46.9219 20.5156
Q46.9219 27.0938 42.8906 30.8594
Q38.875 34.625 31.7812 34.625
M21.9219 38.8125
Q15.5781 40.375 12.0312 44.7188
Q8.5 49.0781 8.5 55.3281
Q8.5 64.0625 14.7188 69.1406
Q20.9531 74.2188 31.7812 74.2188
Q42.6719 74.2188 48.875 69.1406
Q55.0781 64.0625 55.0781 55.3281
Q55.0781 49.0781 51.5312 44.7188
Q48 40.375 41.7031 38.8125
Q48.8281 37.1562 52.7969 32.3125
Q56.7812 27.4844 56.7812 20.5156
Q56.7812 9.90625 50.3125 4.23438
Q43.8438 -1.42188 31.7812 -1.42188
Q19.7344 -1.42188 13.25 4.23438
Q6.78125 9.90625 6.78125 20.5156
Q6.78125 27.4844 10.7812 32.3125
Q14.7969 37.1562 21.9219 38.8125
M18.3125 54.3906
Q18.3125 48.7344 21.8438 45.5625
Q25.3906 42.3906 31.7812 42.3906
Q38.1406 42.3906 41.7188 45.5625
Q45.3125 48.7344 45.3125 54.3906
Q45.3125 60.0625 41.7188 63.2344
Q38.1406 66.4062 31.7812 66.4062
Q25.3906 66.4062 21.8438 63.2344
Q18.3125 60.0625 18.3125 54.3906" id="BitstreamVeraSans-Roman-38"/>
      </defs>
      <g transform="translate(50.52875 84.91125)scale(0.12 -0.12)">
       <use xlink:href="#BitstreamVeraSans-Roman-30"/>
       <use x="63.623046875" xlink:href="#BitstreamVeraSans-Roman-2e"/>
       <use x="95.41015625" xlink:href="#BitstreamVeraSans-Roman-38"/>
      </g>
     </g>
    </g>
    <g id="ytick_10">
     <g id="line2d_39">
      <g>
       <use style="stroke:#000000;stroke-width:0.5;" x="72.0" xlink:href="#m728421d6d4" y="43.2"/>
      </g>
     </g>
     <g id="line2d_40">
      <g>
       <use style="stroke:#000000;stroke-width:0.5;" x="518.4" xlink:href="#mcb0005524f" y="43.2"/>
      </g>
     </g>
     <g id="text_20">
      <!-- 0.9 -->
      <defs>
       <path d="
M10.9844 1.51562
L10.9844 10.5
Q14.7031 8.73438 18.5 7.8125
Q22.3125 6.89062 25.9844 6.89062
Q35.75 6.89062 40.8906 13.4531
Q46.0469 20.0156 46.7812 33.4062
Q43.9531 29.2031 39.5938 26.9531
Q35.25 24.7031 29.9844 24.7031
Q19.0469 24.7031 12.6719 31.3125
Q6.29688 37.9375 6.29688 49.4219
Q6.29688 60.6406 12.9375 67.4219
Q19.5781 74.2188 30.6094 74.2188
Q43.2656 74.2188 49.9219 64.5156
Q56.5938 54.8281 56.5938 36.375
Q56.5938 19.1406 48.4062 8.85938
Q40.2344 -1.42188 26.4219 -1.42188
Q22.7031 -1.42188 18.8906 -0.6875
Q15.0938 0.046875 10.9844 1.51562
M30.6094 32.4219
Q37.25 32.4219 41.125 36.9531
Q45.0156 41.5 45.0156 49.4219
Q45.0156 57.2812 41.125 61.8438
Q37.25 66.4062 30.6094 66.4062
Q23.9688 66.4062 20.0938 61.8438
Q16.2188 57.2812 16.2188 49.4219
Q16.2188 41.5 20.0938 36.9531
Q23.9688 32.4219 30.6094 32.4219" id="BitstreamVeraSans-Roman-39"/>
      </defs>
      <g transform="translate(50.55125 46.51125)scale(0.12 -0.12)">
       <use xlink:href="#BitstreamVeraSans-Roman-30"/>
       <use x="63.623046875" xlink:href="#BitstreamVeraSans-Roman-2e"/>
       <use x="95.41015625" xlink:href="#BitstreamVeraSans-Roman-39"/>
      </g>
     </g>
    </g>
    <g id="text_21">
     <!-- population in |4&gt; (blue) -->
     <defs>
      <path d="
M30.6094 48.3906
Q23.3906 48.3906 19.1875 42.75
Q14.9844 37.1094 14.9844 27.2969
Q14.9844 17.4844 19.1562 11.8438
Q23.3438 6.20312 30.6094 6.20312
Q37.7969 6.20312 41.9844 11.8594
Q46.1875 17.5312 46.1875 27.2969
Q46.1875 37.0156 41.9844 42.7031
Q37.7969 48.3906 30.6094 48.3906
M30.6094 56
Q42.3281 56 49.0156 48.375
Q55.7188 40.7656 55.7188 27.2969
Q55.7188 13.875 49.0156 6.21875
Q42.3281 -1.42188 30.6094 -1.42188
Q18.8438 -1.42188 12.1719 6.21875
Q5.51562 13.875 5.51562 27.2969
Q5.51562 40.7656 12.1719 48.375
Q18.8438 56 30.6094 56" id="BitstreamVeraSans-Roman-6f"/>
      <path d="
M21 76.4219
L21 -23.5781
L12.7031 -23.5781
L12.7031 76.4219
z
" id="BitstreamVeraSans-Roman-7c"/>
      <path d="
M9.42188 75.9844
L18.4062 75.9844
L18.4062 0
L9.42188 0
z
" id="BitstreamVeraSans-Roman-6c"/>
      <path d="
M10.5938 49.2188
L10.5938 58.1094
L73.1875 35.4062
L73.1875 27.2969
L10.5938 4.59375
L10.5938 13.4844
L60.8906 31.2969
z
" id="BitstreamVeraSans-Roman-3e"/>
      <path d="
M34.2812 27.4844
Q23.3906 27.4844 19.1875 25
Q14.9844 22.5156 14.9844 16.5
Q14.9844 11.7188 18.1406 8.90625
Q21.2969 6.10938 26.7031 6.10938
Q34.1875 6.10938 38.7031 11.4062
Q43.2188 16.7031 43.2188 25.4844
L43.2188 27.4844
z

M52.2031 31.2031
L52.2031 0
L43.2188 0
L43.2188 8.29688
Q40.1406 3.32812 35.5469 0.953125
Q30.9531 -1.42188 24.3125 -1.42188
Q15.9219 -1.42188 10.9531 3.29688
Q6 8.01562 6 15.9219
Q6 25.1406 12.1719 29.8281
Q18.3594 34.5156 30.6094 34.5156
L43.2188 34.5156
L43.2188 35.4062
Q43.2188 41.6094 39.1406 45
Q35.0625 48.3906 27.6875 48.3906
Q23 48.3906 18.5469 47.2656
Q14.1094 46.1406 10.0156 43.8906
L10.0156 52.2031
Q14.9375 54.1094 19.5781 55.0469
Q24.2188 56 28.6094 56
Q40.4844 56 46.3438 49.8438
Q52.2031 43.7031 52.2031 31.2031" id="BitstreamVeraSans-Roman-61"/>
      <path d="
M18.1094 8.20312
L18.1094 -20.7969
L9.07812 -20.7969
L9.07812 54.6875
L18.1094 54.6875
L18.1094 46.3906
Q20.9531 51.2656 25.2656 53.625
Q29.5938 56 35.5938 56
Q45.5625 56 51.7812 48.0938
Q58.0156 40.1875 58.0156 27.2969
Q58.0156 14.4062 51.7812 6.48438
Q45.5625 -1.42188 35.5938 -1.42188
Q29.5938 -1.42188 25.2656 0.953125
Q20.9531 3.32812 18.1094 8.20312
M48.6875 27.2969
Q48.6875 37.2031 44.6094 42.8438
Q40.5312 48.4844 33.4062 48.4844
Q26.2656 48.4844 22.1875 42.8438
Q18.1094 37.2031 18.1094 27.2969
Q18.1094 17.3906 22.1875 11.75
Q26.2656 6.10938 33.4062 6.10938
Q40.5312 6.10938 44.6094 11.75
Q48.6875 17.3906 48.6875 27.2969" id="BitstreamVeraSans-Roman-70"/>
      <path d="
M48.6875 27.2969
Q48.6875 37.2031 44.6094 42.8438
Q40.5312 48.4844 33.4062 48.4844
Q26.2656 48.4844 22.1875 42.8438
Q18.1094 37.2031 18.1094 27.2969
Q18.1094 17.3906 22.1875 11.75
Q26.2656 6.10938 33.4062 6.10938
Q40.5312 6.10938 44.6094 11.75
Q48.6875 17.3906 48.6875 27.2969
M18.1094 46.3906
Q20.9531 51.2656 25.2656 53.625
Q29.5938 56 35.5938 56
Q45.5625 56 51.7812 48.0938
Q58.0156 40.1875 58.0156 27.2969
Q58.0156 14.4062 51.7812 6.48438
Q45.5625 -1.42188 35.5938 -1.42188
Q29.5938 -1.42188 25.2656 0.953125
Q20.9531 3.32812 18.1094 8.20312
L18.1094 0
L9.07812 0
L9.07812 75.9844
L18.1094 75.9844
z
" id="BitstreamVeraSans-Roman-62"/>
     </defs>
     <g transform="translate(29.113875 287.1215625)rotate(-90.0)scale(0.12 -0.12)">
      <use xlink:href="#BitstreamVeraSans-Roman-70"/>
      <use x="63.4765625" xlink:href="#BitstreamVeraSans-Roman-6f"/>
      <use x="124.658203125" xlink:href="#BitstreamVeraSans-Roman-70"/>
      <use x="188.134765625" xlink:href="#BitstreamVeraSans-Roman-75"/>
      <use x="251.513671875" xlink:href="#BitstreamVeraSans-Roman-6c"/>
      <use x="279.296875" xlink:href="#BitstreamVeraSans-Roman-61"/>
      <use x="340.576171875" xlink:href="#BitstreamVeraSans-Roman-74"/>
      <use x="379.78515625" xlink:href="#BitstreamVeraSans-Roman-69"/>
      <use x="407.568359375" xlink:href="#BitstreamVeraSans-Roman-6f"/>
      <use x="468.75" xlink:href="#BitstreamVeraSans-Roman-6e"/>
      <use x="532.12890625" xlink:href="#BitstreamVeraSans-Roman-20"/>
      <use x="563.916015625" xlink:href="#BitstreamVeraSans-Roman-69"/>
      <use x="591.69921875" xlink:href="#BitstreamVeraSans-Roman-6e"/>
      <use x="655.078125" xlink:href="#BitstreamVeraSans-Roman-20"/>
      <use x="686.865234375" xlink:href="#BitstreamVeraSans-Roman-7c"/>
      <use x="720.556640625" xlink:href="#BitstreamVeraSans-Roman-34"/>
      <use x="784.1796875" xlink:href="#BitstreamVeraSans-Roman-3e"/>
      <use x="867.96875" xlink:href="#BitstreamVeraSans-Roman-20"/>
      <use x="899.755859375" xlink:href="#BitstreamVeraSans-Roman-28"/>
      <use x="938.76953125" xlink:href="#BitstreamVeraSans-Roman-62"/>
      <use x="1002.24609375" xlink:href="#BitstreamVeraSans-Roman-6c"/>
      <use x="1030.02929688" xlink:href="#BitstreamVeraSans-Roman-75"/>
      <use x="1093.40820312" xlink:href="#BitstreamVeraSans-Roman-65"/>
      <use x="1154.93164062" xlink:href="#BitstreamVeraSans-Roman-29"/>
     </g>
     <!--  nbar (black) -->
     <defs>
      <path d="
M41.1094 46.2969
Q39.5938 47.1719 37.8125 47.5781
Q36.0312 48 33.8906 48
Q26.2656 48 22.1875 43.0469
Q18.1094 38.0938 18.1094 28.8125
L18.1094 0
L9.07812 0
L9.07812 54.6875
L18.1094 54.6875
L18.1094 46.1875
Q20.9531 51.1719 25.4844 53.5781
Q30.0312 56 36.5312 56
Q37.4531 56 38.5781 55.875
Q39.7031 55.7656 41.0625 55.5156
z
" id="BitstreamVeraSans-Roman-72"/>
      <path d="
M48.7812 52.5938
L48.7812 44.1875
Q44.9688 46.2969 41.1406 47.3438
Q37.3125 48.3906 33.4062 48.3906
Q24.6562 48.3906 19.8125 42.8438
Q14.9844 37.3125 14.9844 27.2969
Q14.9844 17.2812 19.8125 11.7344
Q24.6562 6.20312 33.4062 6.20312
Q37.3125 6.20312 41.1406 7.25
Q44.9688 8.29688 48.7812 10.4062
L48.7812 2.09375
Q45.0156 0.34375 40.9844 -0.53125
Q36.9688 -1.42188 32.4219 -1.42188
Q20.0625 -1.42188 12.7812 6.34375
Q5.51562 14.1094 5.51562 27.2969
Q5.51562 40.6719 12.8594 48.3281
Q20.2188 56 33.0156 56
Q37.1562 56 41.1094 55.1406
Q45.0625 54.2969 48.7812 52.5938" id="BitstreamVeraSans-Roman-63"/>
     </defs>
     <g transform="translate(42.885 253.66125)rotate(-90.0)scale(0.12 -0.12)">
      <use xlink:href="#BitstreamVeraSans-Roman-20"/>
      <use x="31.787109375" xlink:href="#BitstreamVeraSans-Roman-6e"/>
      <use x="95.166015625" xlink:href="#BitstreamVeraSans-Roman-62"/>
      <use x="158.642578125" xlink:href="#BitstreamVeraSans-Roman-61"/>
      <use x="219.921875" xlink:href="#BitstreamVeraSans-Roman-72"/>
      <use x="261.03515625" xlink:href="#BitstreamVeraSans-Roman-20"/>
      <use x="292.822265625" xlink:href="#BitstreamVeraSans-Roman-28"/>
      <use x="331.8359375" xlink:href="#BitstreamVeraSans-Roman-62"/>
      <use x="395.3125" xlink:href="#BitstreamVeraSans-Roman-6c"/>
      <use x="423.095703125" xlink:href="#BitstreamVeraSans-Roman-61"/>
      <use x="484.375" xlink:href="#BitstreamVeraSans-Roman-63"/>
      <use x="539.35546875" xlink:href="#BitstreamVeraSans-Roman-6b"/>
      <use x="597.265625" xlink:href="#BitstreamVeraSans-Roman-29"/>
     </g>
    </g>
   </g>
   <g id="patch_3">
    <path d="
M72 43.2
L518.4 43.2" style="fill:none;stroke:#000000;"/>
   </g>
   <g id="patch_4">
    <path d="
M518.4 388.8
L518.4 43.2" style="fill:none;stroke:#000000;"/>
   </g>
   <g id="patch_5">
    <path d="
M72 388.8
L518.4 388.8" style="fill:none;stroke:#000000;"/>
   </g>
   <g id="patch_6">
    <path d="
M72 388.8
L72 43.2" style="fill:none;stroke:#000000;"/>
   </g>
   <g id="text_22">
    <!-- simulated raman spectrum -->
    <defs>
     <path d="
M52 44.1875
Q55.375 50.25 60.0625 53.125
Q64.75 56 71.0938 56
Q79.6406 56 84.2812 50.0156
Q88.9219 44.0469 88.9219 33.0156
L88.9219 0
L79.8906 0
L79.8906 32.7188
Q79.8906 40.5781 77.0938 44.375
Q74.3125 48.1875 68.6094 48.1875
Q61.625 48.1875 57.5625 43.5469
Q53.5156 38.9219 53.5156 30.9062
L53.5156 0
L44.4844 0
L44.4844 32.7188
Q44.4844 40.625 41.7031 44.4062
Q38.9219 48.1875 33.1094 48.1875
Q26.2188 48.1875 22.1562 43.5312
Q18.1094 38.875 18.1094 30.9062
L18.1094 0
L9.07812 0
L9.07812 54.6875
L18.1094 54.6875
L18.1094 46.1875
Q21.1875 51.2188 25.4844 53.6094
Q29.7812 56 35.6875 56
Q41.6562 56 45.8281 52.9688
Q50 49.9531 52 44.1875" id="BitstreamVeraSans-Roman-6d"/>
     <path d="
M44.2812 53.0781
L44.2812 44.5781
Q40.4844 46.5312 36.375 47.5
Q32.2812 48.4844 27.875 48.4844
Q21.1875 48.4844 17.8438 46.4375
Q14.5 44.3906 14.5 40.2812
Q14.5 37.1562 16.8906 35.375
Q19.2812 33.5938 26.5156 31.9844
L29.5938 31.2969
Q39.1562 29.25 43.1875 25.5156
Q47.2188 21.7812 47.2188 15.0938
Q47.2188 7.46875 41.1875 3.01562
Q35.1562 -1.42188 24.6094 -1.42188
Q20.2188 -1.42188 15.4531 -0.5625
Q10.6875 0.296875 5.42188 2
L5.42188 11.2812
Q10.4062 8.6875 15.2344 7.39062
Q20.0625 6.10938 24.8125 6.10938
Q31.1562 6.10938 34.5625 8.28125
Q37.9844 10.4531 37.9844 14.4062
Q37.9844 18.0625 35.5156 20.0156
Q33.0625 21.9688 24.7031 23.7812
L21.5781 24.5156
Q13.2344 26.2656 9.51562 29.9062
Q5.8125 33.5469 5.8125 39.8906
Q5.8125 47.6094 11.2812 51.7969
Q16.75 56 26.8125 56
Q31.7812 56 36.1719 55.2656
Q40.5781 54.5469 44.2812 53.0781" id="BitstreamVeraSans-Roman-73"/>
    </defs>
    <g transform="translate(198.24075 22.07515)scale(0.144 -0.144)">
     <use xlink:href="#BitstreamVeraSans-Roman-73"/>
     <use x="52.099609375" xlink:href="#BitstreamVeraSans-Roman-69"/>
     <use x="79.8828125" xlink:href="#BitstreamVeraSans-Roman-6d"/>
     <use x="177.294921875" xlink:href="#BitstreamVeraSans-Roman-75"/>
     <use x="240.673828125" xlink:href="#BitstreamVeraSans-Roman-6c"/>
     <use x="268.45703125" xlink:href="#BitstreamVeraSans-Roman-61"/>
     <use x="329.736328125" xlink:href="#BitstreamVeraSans-Roman-74"/>
     <use x="368.9453125" xlink:href="#BitstreamVeraSans-Roman-65"/>
     <use x="430.46875" xlink:href="#BitstreamVeraSans-Roman-64"/>
     <use x="493.9453125" xlink:href="#BitstreamVeraSans-Roman-20"/>
     <use x="525.732421875" xlink:href="#BitstreamVeraSans-Roman-72"/>
     <use x="566.845703125" xlink:href="#BitstreamVeraSans-Roman-61"/>
     <use x="628.125" xlink:href="#BitstreamVeraSans-Roman-6d"/>
     <use x="725.537109375" xlink:href="#BitstreamVeraSans-Roman-61"/>
     <use x="786.81640625" xlink:href="#BitstreamVeraSans-Roman-6e"/>
     <use x="850.1953125" xlink:href="#BitstreamVeraSans-Roman-20"/>
     <use x="881.982421875" xlink:href="#BitstreamVeraSans-Roman-73"/>
     <use x="934.08203125" xlink:href="#BitstreamVeraSans-Roman-70"/>
     <use x="997.55859375" xlink:href="#BitstreamVeraSans-Roman-65"/>
     <use x="1059.08203125" xlink:href="#BitstreamVeraSans-Roman-63"/>
     <use x="1114.0625" xlink:href="#BitstreamVeraSans-Roman-74"/>
     <use x="1153.27148438" xlink:href="#BitstreamVeraSans-Roman-72"/>
     <use x="1194.38476562" xlink:href="#BitstreamVeraSans-Roman-75"/>
     <use x="1257.76367188" xlink:href="#BitstreamVeraSans-Roman-6d"/>
    </g>
    <!--   -->
    <g transform="translate(292.91175 38.2)scale(0.144 -0.144)">
     <use xlink:href="#BitstreamVeraSans-Roman-20"/>
    </g>
   </g>
  </g>
 </g>
 <defs>
  <clipPath id="p7ff5b81e1d">
   <rect height="345.6" width="446.4" x="72.0" y="43.2"/>
  </clipPath>
 </defs>
</svg>
